<?xml version="1.0" encoding="UTF-8" standalone="no"?>
<svg
   xmlns:dc="http://purl.org/dc/elements/1.1/"
   xmlns:cc="http://creativecommons.org/ns#"
   xmlns:rdf="http://www.w3.org/1999/02/22-rdf-syntax-ns#"
   xmlns:svg="http://www.w3.org/2000/svg"
   xmlns="http://www.w3.org/2000/svg"
   xmlns:sodipodi="http://sodipodi.sourceforge.net/DTD/sodipodi-0.dtd"
   xmlns:inkscape="http://www.inkscape.org/namespaces/inkscape"
   version="1.1"
   x="0px"
   y="0px"
   viewBox="0 0 23.63077 32.000198"
   id="svg2"
   inkscape:version="0.91 r"
   sodipodi:docname="pencil_box.svg"
   width="23.63077"
   height="32.000198"
   inkscape:export-filename="/home/joel/repos/cs3226/boxchat/boxchat-app/app/public/img/splash/pencil_box.png"
   inkscape:export-xdpi="3.8085938"
   inkscape:export-ydpi="3.8085938">
  <metadata
     id="metadata20">
    <rdf:RDF>
      <cc:Work
         rdf:about="">
        <dc:format>image/svg+xml</dc:format>
        <dc:type
           rdf:resource="http://purl.org/dc/dcmitype/StillImage" />
        <dc:title />
      </cc:Work>
    </rdf:RDF>
  </metadata>
  <defs
     id="defs18" />
  <sodipodi:namedview
     pagecolor="#ffffff"
     bordercolor="#666666"
     borderopacity="1"
     objecttolerance="10"
     gridtolerance="10"
     guidetolerance="10"
     inkscape:pageopacity="0"
     inkscape:pageshadow="2"
     inkscape:window-width="1855"
     inkscape:window-height="1056"
     id="namedview16"
     showgrid="false"
     inkscape:zoom="11.8"
     inkscape:cx="-12.059911"
     inkscape:cy="16.835794"
     inkscape:window-x="65"
     inkscape:window-y="24"
     inkscape:window-maximized="1"
     inkscape:current-layer="svg2"
     fit-margin-top="0"
     fit-margin-left="0"
     fit-margin-right="0"
     fit-margin-bottom="0" />
  <g
     transform="translate(-3.9999957,-1020.3622)"
     id="g4"
     inkscape:export-xdpi="1713.87"
     inkscape:export-ydpi="1713.87">
    <g
       transform="translate(-0.1874839,-0.08735)"
       id="g6">
      <g
         transform="translate(0.18336736,-0.87410704)"
         id="g8">
        <path
           style="color:#000000;text-indent:0;text-transform:none;direction:ltr;block-progression:tb;baseline-shift:baseline;display:inline;overflow:visible;visibility:visible;fill:#000000;fill-opacity:1;stroke:none;marker:none;enable-background:accumulate"
           d="m 14.342578,1021.3237 0,0.4923 0,14.7692 -0.492308,0 0,-9.3538 c 0.0091,-0.1454 -0.103536,-0.2491 -0.15385,-0.3701 l -1.876923,-3.7847 c -0.08293,-0.1707 -0.271861,-0.2841 -0.461538,-0.2769 -0.168944,0.015 -0.326445,0.1241 -0.4,0.2769 l -1.8769234,3.7847 c -0.1350683,0.1351 -0.1538459,0.2114 -0.1538459,0.4318 l 0,9.2923 -4.4307692,0 c -0.010253,-3e-4 -0.020516,-3e-4 -0.030769,0 -0.2473352,0.015 -0.4619958,0.2445 -0.4615385,0.4923 l 0,11.3231 c 0,2.7189 2.2041245,4.9231 4.9230769,4.9231 l 8.8615381,0 c 2.718952,0 4.923077,-2.2042 4.923077,-4.9231 l 0.553846,0 c 2.411973,0 4.369231,-1.9893 4.369231,-4.4307 0,-2.4415 -1.957258,-4.4308 -4.369231,-4.4308 l -0.553846,0 0,-2.4616 c -2.9e-5,-0.2578 -0.234545,-0.4923 -0.492308,-0.4923 l -1.476923,0 0,-14.7692 0,-0.4923 -0.492308,0 -5.415384,0 -0.492308,0 z m 0.984615,0.9846 4.43077,0 0,14.2769 -4.43077,0 0,-0.9846 0.492308,0 0,-0.9846 -0.492308,0 0,-0.9846 1.476924,0 0,-0.9846 -1.476924,0 0,-0.9846 0.492308,0 0,-0.9847 -0.492308,0 0,-0.9846 1.476924,0 0,-0.9846 -1.476924,0 0,-0.9846 0.492308,0 0,-0.9846 -0.492308,0 0,-0.9846 1.476924,0 0,-0.9846 -1.476924,0 0,-0.9847 0.492308,0 0,-0.9846 -0.492308,0 z m -3.938461,2.0923 1.169231,2.3385 -2.338462,0 z m -1.4769232,3.3231 0.9846152,0 0,8.8615 -0.9846152,0 z m 1.9692312,0 0.984615,0 0,8.8615 -0.984615,0 z m -6.8923081,9.8462 16.7384611,0 0,2.4307 c -0.0013,0.021 -0.0013,0.041 0,0.062 l 0,8.3384 c 0,2.1906 -1.747964,3.9385 -3.938461,3.9385 l -8.8615386,0 c -2.1904973,0 -3.9384615,-1.7479 -3.9384615,-3.9385 l 0,-10.8307 z m 17.7230771,2.9538 0.553846,0 c 1.87392,0 3.384615,1.5238 3.384615,3.4462 0,1.9223 -1.510695,3.4461 -3.384615,3.4461 l -0.553846,0 z"
           visibility="visible"
           display="inline"
           overflow="visible"
           id="path10"
           inkscape:connector-curvature="0" />
      </g>
    </g>
  </g>
</svg>
